<?xml version="1.0" encoding="UTF-8" standalone="no"?><svg xmlns="http://www.w3.org/2000/svg" xmlns:xlink="http://www.w3.org/1999/xlink" fill="#000000" height="58" preserveAspectRatio="xMidYMid meet" version="1" viewBox="11.0 3.0 42.0 58.0" width="42" zoomAndPan="magnify"><g fill="#8a95a0" id="change1_1"><path d="M 32 42 C 22.074219 42 14 33.925781 14 24 C 14 14.074219 22.074219 6 32 6 C 41.925781 6 50 14.074219 50 24 C 50 33.925781 41.925781 42 32 42 Z M 32 3 C 20.402344 3 11 12.523438 11 24.265625 C 11 42.632812 32 61 32 61 C 32 61 53 42.632812 53 24.265625 C 53 12.523438 43.597656 3 32 3" fill="inherit"/><path d="M 38 27 L 38 36 L 26 36 L 26 27 L 22 27 L 31 19.800781 L 31 16 L 28 16 L 28 14 L 31 14 L 31 11 L 33 11 L 33 14 L 36 14 L 36 16 L 33 16 L 33 19.800781 L 42 27 Z M 32 8 C 23.175781 8 16 15.175781 16 24 C 16 32.824219 23.175781 40 32 40 C 40.824219 40 48 32.824219 48 24 C 48 15.175781 40.824219 8 32 8" fill="inherit"/></g></svg>